<mxfile host="app.diagrams.net" agent="Mozilla/5.0 (Macintosh; Intel Mac OS X 10_15_7) AppleWebKit/605.1.15 (KHTML, like Gecko) Version/18.2 Safari/605.1.15" version="26.0.1">
  <diagram name="Page-1" id="DRFL2DdX7cvpsLH4rrUR">
    <mxGraphModel dx="1434" dy="802" grid="1" gridSize="10" guides="1" tooltips="1" connect="1" arrows="1" fold="1" page="1" pageScale="1" pageWidth="827" pageHeight="1169" math="0" shadow="0">
      <root>
        <mxCell id="0" />
        <mxCell id="1" parent="0" />
        <mxCell id="561VKzJUoYmYLCurIPaJ-1" style="edgeStyle=orthogonalEdgeStyle;rounded=0;orthogonalLoop=1;jettySize=auto;html=1;" edge="1" parent="1" source="561VKzJUoYmYLCurIPaJ-4" target="561VKzJUoYmYLCurIPaJ-129">
          <mxGeometry relative="1" as="geometry" />
        </mxCell>
        <mxCell id="561VKzJUoYmYLCurIPaJ-2" style="edgeStyle=orthogonalEdgeStyle;rounded=0;orthogonalLoop=1;jettySize=auto;html=1;exitX=1;exitY=0.171;exitDx=0;exitDy=0;entryX=-0.012;entryY=0.171;entryDx=0;entryDy=0;exitPerimeter=0;entryPerimeter=0;" edge="1" parent="1" source="561VKzJUoYmYLCurIPaJ-4" target="561VKzJUoYmYLCurIPaJ-129">
          <mxGeometry relative="1" as="geometry" />
        </mxCell>
        <mxCell id="561VKzJUoYmYLCurIPaJ-3" style="edgeStyle=orthogonalEdgeStyle;rounded=0;orthogonalLoop=1;jettySize=auto;html=1;exitX=1.001;exitY=0.849;exitDx=0;exitDy=0;entryX=0;entryY=0.849;entryDx=0;entryDy=0;exitPerimeter=0;entryPerimeter=0;" edge="1" parent="1" source="561VKzJUoYmYLCurIPaJ-4" target="561VKzJUoYmYLCurIPaJ-129">
          <mxGeometry relative="1" as="geometry" />
        </mxCell>
        <mxCell id="561VKzJUoYmYLCurIPaJ-4" value="Block servers" style="rounded=1;whiteSpace=wrap;html=1;strokeColor=#66B2FF;verticalAlign=bottom;fontSize=18;" vertex="1" parent="1">
          <mxGeometry x="6270" y="178" width="740" height="400" as="geometry" />
        </mxCell>
        <mxCell id="561VKzJUoYmYLCurIPaJ-5" value="" style="rounded=1;whiteSpace=wrap;html=1;verticalAlign=bottom;strokeColor=#66B2FF;" vertex="1" parent="1">
          <mxGeometry x="5080" y="570" width="100" height="106" as="geometry" />
        </mxCell>
        <mxCell id="561VKzJUoYmYLCurIPaJ-6" value="" style="rounded=1;whiteSpace=wrap;html=1;verticalAlign=bottom;strokeColor=#66B2FF;" vertex="1" parent="1">
          <mxGeometry x="2815" y="532" width="100" height="106" as="geometry" />
        </mxCell>
        <mxCell id="561VKzJUoYmYLCurIPaJ-7" value="Metadata DB" style="rounded=1;whiteSpace=wrap;html=1;verticalAlign=bottom;strokeColor=#66B2FF;" vertex="1" parent="1">
          <mxGeometry x="2585" y="532" width="100" height="106" as="geometry" />
        </mxCell>
        <mxCell id="561VKzJUoYmYLCurIPaJ-8" style="rounded=0;orthogonalLoop=1;jettySize=auto;html=1;exitX=0.5;exitY=1;exitDx=0;exitDy=0;entryX=1;entryY=0.25;entryDx=0;entryDy=0;" edge="1" parent="1" source="561VKzJUoYmYLCurIPaJ-10" target="561VKzJUoYmYLCurIPaJ-7">
          <mxGeometry relative="1" as="geometry">
            <mxPoint x="2755" y="470" as="sourcePoint" />
          </mxGeometry>
        </mxCell>
        <mxCell id="561VKzJUoYmYLCurIPaJ-9" style="edgeStyle=none;shape=connector;rounded=0;orthogonalLoop=1;jettySize=auto;html=1;entryX=0;entryY=0.25;entryDx=0;entryDy=0;strokeColor=default;align=center;verticalAlign=middle;fontFamily=Helvetica;fontSize=11;fontColor=default;labelBackgroundColor=default;endArrow=classic;exitX=0.5;exitY=1;exitDx=0;exitDy=0;" edge="1" parent="1" source="561VKzJUoYmYLCurIPaJ-10" target="561VKzJUoYmYLCurIPaJ-6">
          <mxGeometry relative="1" as="geometry">
            <mxPoint x="2755" y="470" as="sourcePoint" />
          </mxGeometry>
        </mxCell>
        <mxCell id="561VKzJUoYmYLCurIPaJ-10" value="" style="rounded=1;whiteSpace=wrap;html=1;dashed=1;strokeColor=#66B2FF;" vertex="1" parent="1">
          <mxGeometry x="2710" y="390" width="80" height="80" as="geometry" />
        </mxCell>
        <mxCell id="561VKzJUoYmYLCurIPaJ-11" value="User" style="rounded=1;whiteSpace=wrap;html=1;strokeColor=#66B2FF;strokeWidth=2;labelPosition=center;verticalLabelPosition=middle;align=center;verticalAlign=middle;spacingBottom=60;spacingRight=150;" vertex="1" parent="1">
          <mxGeometry x="2650" y="100" width="200" height="90" as="geometry" />
        </mxCell>
        <mxCell id="561VKzJUoYmYLCurIPaJ-12" value="" style="rounded=0;orthogonalLoop=1;jettySize=auto;html=1;exitX=0.3;exitY=0.889;exitDx=0;exitDy=0;exitPerimeter=0;" edge="1" parent="1" source="561VKzJUoYmYLCurIPaJ-11" target="561VKzJUoYmYLCurIPaJ-42">
          <mxGeometry relative="1" as="geometry">
            <mxPoint x="2700" y="60" as="sourcePoint" />
          </mxGeometry>
        </mxCell>
        <mxCell id="561VKzJUoYmYLCurIPaJ-13" value="Region B" style="rounded=1;whiteSpace=wrap;html=1;dashed=1;fillColor=default;strokeColor=#3399FF;verticalAlign=bottom;fontSize=16;fontStyle=0" vertex="1" parent="1">
          <mxGeometry x="2142.5" y="80" width="150" height="360" as="geometry" />
        </mxCell>
        <mxCell id="561VKzJUoYmYLCurIPaJ-14" value="Server 1" style="sketch=0;pointerEvents=1;shadow=0;dashed=0;html=1;strokeColor=none;labelPosition=center;verticalLabelPosition=bottom;verticalAlign=top;outlineConnect=0;align=center;shape=mxgraph.office.servers.server_generic;fillColor=#7FBA42;" vertex="1" parent="1">
          <mxGeometry x="286.5" y="270" width="27" height="52" as="geometry" />
        </mxCell>
        <mxCell id="561VKzJUoYmYLCurIPaJ-15" style="edgeStyle=orthogonalEdgeStyle;rounded=0;orthogonalLoop=1;jettySize=auto;html=1;strokeColor=#66B2FF;strokeWidth=2;" edge="1" parent="1" source="561VKzJUoYmYLCurIPaJ-19" target="561VKzJUoYmYLCurIPaJ-14">
          <mxGeometry relative="1" as="geometry" />
        </mxCell>
        <mxCell id="561VKzJUoYmYLCurIPaJ-16" style="edgeStyle=orthogonalEdgeStyle;rounded=0;orthogonalLoop=1;jettySize=auto;html=1;strokeColor=#66B2FF;strokeWidth=2;" edge="1" parent="1" source="561VKzJUoYmYLCurIPaJ-19" target="561VKzJUoYmYLCurIPaJ-20">
          <mxGeometry relative="1" as="geometry">
            <Array as="points">
              <mxPoint x="480" y="170" />
              <mxPoint x="424" y="170" />
            </Array>
          </mxGeometry>
        </mxCell>
        <mxCell id="561VKzJUoYmYLCurIPaJ-17" style="edgeStyle=orthogonalEdgeStyle;rounded=0;orthogonalLoop=1;jettySize=auto;html=1;exitX=0.5;exitY=1;exitDx=0;exitDy=0;strokeColor=#66B2FF;strokeWidth=2;" edge="1" parent="1" source="561VKzJUoYmYLCurIPaJ-19" target="561VKzJUoYmYLCurIPaJ-21">
          <mxGeometry relative="1" as="geometry">
            <Array as="points">
              <mxPoint x="480" y="170" />
              <mxPoint x="540" y="170" />
            </Array>
          </mxGeometry>
        </mxCell>
        <mxCell id="561VKzJUoYmYLCurIPaJ-18" style="edgeStyle=orthogonalEdgeStyle;rounded=0;orthogonalLoop=1;jettySize=auto;html=1;strokeColor=#66B2FF;strokeWidth=2;" edge="1" parent="1" source="561VKzJUoYmYLCurIPaJ-19" target="561VKzJUoYmYLCurIPaJ-22">
          <mxGeometry relative="1" as="geometry" />
        </mxCell>
        <mxCell id="561VKzJUoYmYLCurIPaJ-19" value="user_id % 4" style="rhombus;whiteSpace=wrap;html=1;" vertex="1" parent="1">
          <mxGeometry x="440" y="60" width="80" height="80" as="geometry" />
        </mxCell>
        <mxCell id="561VKzJUoYmYLCurIPaJ-20" value="Server 2" style="sketch=0;pointerEvents=1;shadow=0;dashed=0;html=1;strokeColor=none;labelPosition=center;verticalLabelPosition=bottom;verticalAlign=top;outlineConnect=0;align=center;shape=mxgraph.office.servers.server_generic;fillColor=#7FBA42;" vertex="1" parent="1">
          <mxGeometry x="406.5" y="270" width="27" height="52" as="geometry" />
        </mxCell>
        <mxCell id="561VKzJUoYmYLCurIPaJ-21" value="Server 3" style="sketch=0;pointerEvents=1;shadow=0;dashed=0;html=1;strokeColor=none;labelPosition=center;verticalLabelPosition=bottom;verticalAlign=top;outlineConnect=0;align=center;shape=mxgraph.office.servers.server_generic;fillColor=#7FBA42;" vertex="1" parent="1">
          <mxGeometry x="526.5" y="270" width="27" height="52" as="geometry" />
        </mxCell>
        <mxCell id="561VKzJUoYmYLCurIPaJ-22" value="Server 4" style="sketch=0;pointerEvents=1;shadow=0;dashed=0;html=1;strokeColor=none;labelPosition=center;verticalLabelPosition=bottom;verticalAlign=top;outlineConnect=0;align=center;shape=mxgraph.office.servers.server_generic;fillColor=#7FBA42;" vertex="1" parent="1">
          <mxGeometry x="646.5" y="270" width="27" height="52" as="geometry" />
        </mxCell>
        <mxCell id="561VKzJUoYmYLCurIPaJ-23" value="Region A" style="rounded=1;whiteSpace=wrap;html=1;dashed=1;fillColor=default;strokeColor=#3399FF;verticalAlign=bottom;fontSize=16;fontStyle=0" vertex="1" parent="1">
          <mxGeometry x="960" y="80" width="550" height="360" as="geometry" />
        </mxCell>
        <mxCell id="561VKzJUoYmYLCurIPaJ-24" value="replication" style="edgeStyle=orthogonalEdgeStyle;rounded=0;orthogonalLoop=1;jettySize=auto;html=1;fontSize=16;verticalAlign=middle;" edge="1" parent="1" source="561VKzJUoYmYLCurIPaJ-27" target="561VKzJUoYmYLCurIPaJ-28">
          <mxGeometry x="0.4627" y="15" relative="1" as="geometry">
            <mxPoint as="offset" />
          </mxGeometry>
        </mxCell>
        <mxCell id="561VKzJUoYmYLCurIPaJ-25" value="replication" style="edgeStyle=orthogonalEdgeStyle;rounded=0;orthogonalLoop=1;jettySize=auto;html=1;verticalAlign=middle;fontSize=16;" edge="1" parent="1" source="561VKzJUoYmYLCurIPaJ-27" target="561VKzJUoYmYLCurIPaJ-29">
          <mxGeometry x="0.6" y="10" relative="1" as="geometry">
            <Array as="points">
              <mxPoint x="1210" y="255" />
              <mxPoint x="1210" y="140" />
            </Array>
            <mxPoint as="offset" />
          </mxGeometry>
        </mxCell>
        <mxCell id="561VKzJUoYmYLCurIPaJ-26" value="replication" style="edgeStyle=orthogonalEdgeStyle;rounded=0;orthogonalLoop=1;jettySize=auto;html=1;verticalAlign=middle;fontSize=16;" edge="1" parent="1" source="561VKzJUoYmYLCurIPaJ-27" target="561VKzJUoYmYLCurIPaJ-30">
          <mxGeometry x="0.6087" y="10" relative="1" as="geometry">
            <Array as="points">
              <mxPoint x="1210" y="255" />
              <mxPoint x="1210" y="380" />
            </Array>
            <mxPoint as="offset" />
          </mxGeometry>
        </mxCell>
        <mxCell id="561VKzJUoYmYLCurIPaJ-27" value="" style="sketch=0;outlineConnect=0;fontColor=#232F3E;gradientColor=none;fillColor=#3399FF;strokeColor=none;dashed=0;verticalLabelPosition=bottom;verticalAlign=top;align=center;html=1;fontSize=12;fontStyle=0;aspect=fixed;pointerEvents=1;shape=mxgraph.aws4.bucket;" vertex="1" parent="1">
          <mxGeometry x="990" y="216" width="75" height="78" as="geometry" />
        </mxCell>
        <mxCell id="561VKzJUoYmYLCurIPaJ-28" value="" style="sketch=0;outlineConnect=0;fontColor=#232F3E;gradientColor=none;fillColor=#3399FF;strokeColor=none;dashed=0;verticalLabelPosition=bottom;verticalAlign=top;align=center;html=1;fontSize=12;fontStyle=0;aspect=fixed;pointerEvents=1;shape=mxgraph.aws4.bucket;" vertex="1" parent="1">
          <mxGeometry x="1400" y="216" width="75" height="78" as="geometry" />
        </mxCell>
        <mxCell id="561VKzJUoYmYLCurIPaJ-29" value="" style="sketch=0;outlineConnect=0;fontColor=#232F3E;gradientColor=none;fillColor=#3399FF;strokeColor=none;dashed=0;verticalLabelPosition=bottom;verticalAlign=top;align=center;html=1;fontSize=12;fontStyle=0;aspect=fixed;pointerEvents=1;shape=mxgraph.aws4.bucket;" vertex="1" parent="1">
          <mxGeometry x="1400" y="100" width="75" height="78" as="geometry" />
        </mxCell>
        <mxCell id="561VKzJUoYmYLCurIPaJ-30" value="" style="sketch=0;outlineConnect=0;fontColor=#232F3E;gradientColor=none;fillColor=#3399FF;strokeColor=none;dashed=0;verticalLabelPosition=bottom;verticalAlign=top;align=center;html=1;fontSize=12;fontStyle=0;aspect=fixed;pointerEvents=1;shape=mxgraph.aws4.bucket;" vertex="1" parent="1">
          <mxGeometry x="1400" y="340" width="75" height="78" as="geometry" />
        </mxCell>
        <mxCell id="561VKzJUoYmYLCurIPaJ-31" value="Region A" style="rounded=1;whiteSpace=wrap;html=1;dashed=1;fillColor=default;strokeColor=#3399FF;verticalAlign=bottom;fontSize=16;fontStyle=0" vertex="1" parent="1">
          <mxGeometry x="1740" y="80" width="150" height="360" as="geometry" />
        </mxCell>
        <mxCell id="561VKzJUoYmYLCurIPaJ-32" value="replication" style="edgeStyle=orthogonalEdgeStyle;rounded=0;orthogonalLoop=1;jettySize=auto;html=1;fontSize=16;verticalAlign=middle;exitX=0.993;exitY=0.488;exitDx=0;exitDy=0;exitPerimeter=0;entryX=0.001;entryY=0.487;entryDx=0;entryDy=0;entryPerimeter=0;" edge="1" parent="1" source="561VKzJUoYmYLCurIPaJ-31" target="561VKzJUoYmYLCurIPaJ-13">
          <mxGeometry x="0.4627" y="15" relative="1" as="geometry">
            <mxPoint as="offset" />
          </mxGeometry>
        </mxCell>
        <mxCell id="561VKzJUoYmYLCurIPaJ-33" value="replication" style="edgeStyle=orthogonalEdgeStyle;rounded=0;orthogonalLoop=1;jettySize=auto;html=1;verticalAlign=middle;fontSize=16;" edge="1" parent="1" source="561VKzJUoYmYLCurIPaJ-31">
          <mxGeometry x="0.6" y="10" relative="1" as="geometry">
            <Array as="points">
              <mxPoint x="1990" y="255" />
              <mxPoint x="1990" y="140" />
            </Array>
            <mxPoint as="offset" />
            <mxPoint x="2140" y="140" as="targetPoint" />
          </mxGeometry>
        </mxCell>
        <mxCell id="561VKzJUoYmYLCurIPaJ-34" value="replication" style="edgeStyle=orthogonalEdgeStyle;rounded=0;orthogonalLoop=1;jettySize=auto;html=1;verticalAlign=middle;fontSize=16;entryX=0.02;entryY=0.836;entryDx=0;entryDy=0;entryPerimeter=0;" edge="1" parent="1" target="561VKzJUoYmYLCurIPaJ-13">
          <mxGeometry x="0.6087" y="10" relative="1" as="geometry">
            <Array as="points">
              <mxPoint x="1990" y="255" />
              <mxPoint x="1990" y="380" />
              <mxPoint x="2145" y="380" />
            </Array>
            <mxPoint as="offset" />
            <mxPoint x="1890" y="255" as="sourcePoint" />
            <mxPoint x="2140" y="380" as="targetPoint" />
          </mxGeometry>
        </mxCell>
        <mxCell id="561VKzJUoYmYLCurIPaJ-35" value="" style="sketch=0;outlineConnect=0;fontColor=#232F3E;gradientColor=none;fillColor=#3399FF;strokeColor=none;dashed=0;verticalLabelPosition=bottom;verticalAlign=top;align=center;html=1;fontSize=12;fontStyle=0;aspect=fixed;pointerEvents=1;shape=mxgraph.aws4.bucket;" vertex="1" parent="1">
          <mxGeometry x="1777.5" y="216" width="75" height="78" as="geometry" />
        </mxCell>
        <mxCell id="561VKzJUoYmYLCurIPaJ-36" value="" style="sketch=0;outlineConnect=0;fontColor=#232F3E;gradientColor=none;fillColor=#3399FF;strokeColor=none;dashed=0;verticalLabelPosition=bottom;verticalAlign=top;align=center;html=1;fontSize=12;fontStyle=0;aspect=fixed;pointerEvents=1;shape=mxgraph.aws4.bucket;" vertex="1" parent="1">
          <mxGeometry x="2180" y="216" width="75" height="78" as="geometry" />
        </mxCell>
        <mxCell id="561VKzJUoYmYLCurIPaJ-37" value="" style="sketch=0;outlineConnect=0;fontColor=#232F3E;gradientColor=none;fillColor=#3399FF;strokeColor=none;dashed=0;verticalLabelPosition=bottom;verticalAlign=top;align=center;html=1;fontSize=12;fontStyle=0;aspect=fixed;pointerEvents=1;shape=mxgraph.aws4.bucket;" vertex="1" parent="1">
          <mxGeometry x="2180" y="100" width="75" height="78" as="geometry" />
        </mxCell>
        <mxCell id="561VKzJUoYmYLCurIPaJ-38" value="" style="sketch=0;outlineConnect=0;fontColor=#232F3E;gradientColor=none;fillColor=#3399FF;strokeColor=none;dashed=0;verticalLabelPosition=bottom;verticalAlign=top;align=center;html=1;fontSize=12;fontStyle=0;aspect=fixed;pointerEvents=1;shape=mxgraph.aws4.bucket;" vertex="1" parent="1">
          <mxGeometry x="2180" y="340" width="75" height="78" as="geometry" />
        </mxCell>
        <mxCell id="561VKzJUoYmYLCurIPaJ-39" value="Web browser" style="sketch=0;aspect=fixed;pointerEvents=1;shadow=0;dashed=0;html=1;strokeColor=none;labelPosition=center;verticalLabelPosition=bottom;verticalAlign=top;align=center;fillColor=#000000;shape=mxgraph.azure.laptop" vertex="1" parent="1">
          <mxGeometry x="2700" y="124" width="50" height="30" as="geometry" />
        </mxCell>
        <mxCell id="561VKzJUoYmYLCurIPaJ-40" value="Mobile app" style="sketch=0;pointerEvents=1;shadow=0;dashed=0;html=1;strokeColor=none;fillColor=#000000;labelPosition=center;verticalLabelPosition=bottom;verticalAlign=top;outlineConnect=0;align=center;shape=mxgraph.office.devices.cell_phone_iphone_standalone;" vertex="1" parent="1">
          <mxGeometry x="2790" y="119" width="25" height="42" as="geometry" />
        </mxCell>
        <mxCell id="561VKzJUoYmYLCurIPaJ-41" value="" style="edgeStyle=orthogonalEdgeStyle;rounded=0;orthogonalLoop=1;jettySize=auto;html=1;" edge="1" parent="1" source="561VKzJUoYmYLCurIPaJ-42">
          <mxGeometry relative="1" as="geometry">
            <mxPoint x="2750" y="390" as="targetPoint" />
          </mxGeometry>
        </mxCell>
        <mxCell id="561VKzJUoYmYLCurIPaJ-42" value="Load balancer" style="verticalLabelPosition=middle;html=1;verticalAlign=middle;align=left;strokeColor=none;fillColor=#00BEF2;shape=mxgraph.azure.azure_load_balancer;labelPosition=right;" vertex="1" parent="1">
          <mxGeometry x="2725" y="278.5" width="50" height="35" as="geometry" />
        </mxCell>
        <mxCell id="561VKzJUoYmYLCurIPaJ-43" style="rounded=0;orthogonalLoop=1;jettySize=auto;html=1;entryX=0.5;entryY=0;entryDx=0;entryDy=0;entryPerimeter=0;exitX=0.75;exitY=0.889;exitDx=0;exitDy=0;exitPerimeter=0;" edge="1" parent="1" source="561VKzJUoYmYLCurIPaJ-11" target="561VKzJUoYmYLCurIPaJ-42">
          <mxGeometry relative="1" as="geometry" />
        </mxCell>
        <mxCell id="561VKzJUoYmYLCurIPaJ-44" value="API servers" style="sketch=0;pointerEvents=1;shadow=0;dashed=0;html=1;strokeColor=none;fillColor=#505050;labelPosition=center;verticalLabelPosition=bottom;verticalAlign=top;outlineConnect=0;align=center;shape=mxgraph.office.servers.server_farm;fillColor=#7FBA42;" vertex="1" parent="1">
          <mxGeometry x="2722" y="400" width="56" height="49" as="geometry" />
        </mxCell>
        <mxCell id="561VKzJUoYmYLCurIPaJ-45" value="" style="shape=mxgraph.cisco.storage.relational_database;html=1;pointerEvents=1;dashed=0;fillColor=#036897;strokeColor=#ffffff;strokeWidth=2;verticalLabelPosition=bottom;verticalAlign=top;align=center;outlineConnect=0;" vertex="1" parent="1">
          <mxGeometry x="2604.999999999999" y="538" width="36.5" height="54" as="geometry" />
        </mxCell>
        <mxCell id="561VKzJUoYmYLCurIPaJ-46" value="" style="shape=mxgraph.cisco.storage.relational_database;html=1;pointerEvents=1;dashed=0;fillColor=#036897;strokeColor=#ffffff;strokeWidth=2;verticalLabelPosition=bottom;verticalAlign=top;align=center;outlineConnect=0;" vertex="1" parent="1">
          <mxGeometry x="2614.999999999999" y="548" width="36.5" height="54" as="geometry" />
        </mxCell>
        <mxCell id="561VKzJUoYmYLCurIPaJ-47" value="" style="shape=mxgraph.cisco.storage.relational_database;html=1;pointerEvents=1;dashed=0;fillColor=#036897;strokeColor=#ffffff;strokeWidth=2;verticalLabelPosition=bottom;verticalAlign=top;align=center;outlineConnect=0;" vertex="1" parent="1">
          <mxGeometry x="2624.999999999999" y="558" width="36.5" height="54" as="geometry" />
        </mxCell>
        <mxCell id="561VKzJUoYmYLCurIPaJ-48" value="File storage" style="sketch=0;outlineConnect=0;fontColor=#232F3E;gradientColor=none;fillColor=#7AA116;strokeColor=none;dashed=0;verticalLabelPosition=bottom;verticalAlign=top;align=center;html=1;fontSize=16;fontStyle=0;aspect=fixed;pointerEvents=1;shape=mxgraph.aws4.bucket_with_objects;" vertex="1" parent="1">
          <mxGeometry x="2836.64" y="539.5" width="56.73" height="59" as="geometry" />
        </mxCell>
        <mxCell id="561VKzJUoYmYLCurIPaJ-49" value="User 1" style="shape=umlActor;verticalLabelPosition=bottom;verticalAlign=top;html=1;outlineConnect=0;fontFamily=Helvetica;fontSize=16;fontColor=default;labelBackgroundColor=default;" vertex="1" parent="1">
          <mxGeometry x="3240" y="94" width="30" height="60" as="geometry" />
        </mxCell>
        <mxCell id="561VKzJUoYmYLCurIPaJ-50" style="edgeStyle=none;shape=connector;rounded=0;orthogonalLoop=1;jettySize=auto;html=1;entryX=0;entryY=0.25;entryDx=0;entryDy=0;strokeColor=default;align=center;verticalAlign=middle;fontFamily=Helvetica;fontSize=11;fontColor=default;labelBackgroundColor=default;endArrow=classic;" edge="1" parent="1" source="561VKzJUoYmYLCurIPaJ-51" target="561VKzJUoYmYLCurIPaJ-55">
          <mxGeometry relative="1" as="geometry" />
        </mxCell>
        <mxCell id="561VKzJUoYmYLCurIPaJ-51" value="" style="whiteSpace=wrap;html=1;shape=mxgraph.basic.document;fontFamily=Helvetica;fontSize=11;fontColor=default;labelBackgroundColor=default;" vertex="1" parent="1">
          <mxGeometry x="3288" y="110" width="20" height="30" as="geometry" />
        </mxCell>
        <mxCell id="561VKzJUoYmYLCurIPaJ-52" value="User 2" style="shape=umlActor;verticalLabelPosition=bottom;verticalAlign=top;html=1;outlineConnect=0;fontFamily=Helvetica;fontSize=16;fontColor=default;labelBackgroundColor=default;" vertex="1" parent="1">
          <mxGeometry x="3240" y="190" width="30" height="60" as="geometry" />
        </mxCell>
        <mxCell id="561VKzJUoYmYLCurIPaJ-53" style="edgeStyle=none;shape=connector;rounded=0;orthogonalLoop=1;jettySize=auto;html=1;entryX=0;entryY=0.75;entryDx=0;entryDy=0;strokeColor=default;align=center;verticalAlign=middle;fontFamily=Helvetica;fontSize=11;fontColor=default;labelBackgroundColor=default;endArrow=classic;" edge="1" parent="1" source="561VKzJUoYmYLCurIPaJ-54" target="561VKzJUoYmYLCurIPaJ-55">
          <mxGeometry relative="1" as="geometry" />
        </mxCell>
        <mxCell id="561VKzJUoYmYLCurIPaJ-54" value="" style="whiteSpace=wrap;html=1;shape=mxgraph.basic.document;fontFamily=Helvetica;fontSize=11;fontColor=default;labelBackgroundColor=default;" vertex="1" parent="1">
          <mxGeometry x="3288" y="206" width="20" height="30" as="geometry" />
        </mxCell>
        <mxCell id="561VKzJUoYmYLCurIPaJ-55" value="Our system" style="rounded=1;whiteSpace=wrap;html=1;strokeColor=#66B2FF;strokeWidth=2;labelPosition=center;verticalLabelPosition=middle;align=center;verticalAlign=middle;spacingBottom=0;spacingRight=0;fontSize=16;" vertex="1" parent="1">
          <mxGeometry x="3480" y="126" width="200" height="90" as="geometry" />
        </mxCell>
        <mxCell id="561VKzJUoYmYLCurIPaJ-56" value="User 1" style="shape=umlActor;verticalLabelPosition=bottom;verticalAlign=top;html=1;outlineConnect=0;fontFamily=Helvetica;fontSize=16;fontColor=default;labelBackgroundColor=default;" vertex="1" parent="1">
          <mxGeometry x="3790" y="94" width="30" height="60" as="geometry" />
        </mxCell>
        <mxCell id="561VKzJUoYmYLCurIPaJ-57" style="edgeStyle=none;shape=connector;rounded=0;orthogonalLoop=1;jettySize=auto;html=1;entryX=0;entryY=0.25;entryDx=0;entryDy=0;strokeColor=default;align=center;verticalAlign=middle;fontFamily=Helvetica;fontSize=11;fontColor=default;labelBackgroundColor=default;endArrow=classic;" edge="1" parent="1" source="561VKzJUoYmYLCurIPaJ-58" target="561VKzJUoYmYLCurIPaJ-62">
          <mxGeometry relative="1" as="geometry" />
        </mxCell>
        <mxCell id="561VKzJUoYmYLCurIPaJ-58" value="" style="whiteSpace=wrap;html=1;shape=mxgraph.basic.document;fontFamily=Helvetica;fontSize=11;fontColor=default;labelBackgroundColor=default;" vertex="1" parent="1">
          <mxGeometry x="3838" y="110" width="20" height="30" as="geometry" />
        </mxCell>
        <mxCell id="561VKzJUoYmYLCurIPaJ-59" value="User 2" style="shape=umlActor;verticalLabelPosition=bottom;verticalAlign=top;html=1;outlineConnect=0;fontFamily=Helvetica;fontSize=16;fontColor=default;labelBackgroundColor=default;" vertex="1" parent="1">
          <mxGeometry x="3790" y="190" width="30" height="60" as="geometry" />
        </mxCell>
        <mxCell id="561VKzJUoYmYLCurIPaJ-60" style="edgeStyle=none;shape=connector;rounded=0;orthogonalLoop=1;jettySize=auto;html=1;entryX=0;entryY=0.75;entryDx=0;entryDy=0;strokeColor=default;align=center;verticalAlign=middle;fontFamily=Helvetica;fontSize=11;fontColor=default;labelBackgroundColor=default;endArrow=classic;" edge="1" parent="1" source="561VKzJUoYmYLCurIPaJ-61" target="561VKzJUoYmYLCurIPaJ-62">
          <mxGeometry relative="1" as="geometry" />
        </mxCell>
        <mxCell id="561VKzJUoYmYLCurIPaJ-61" value="" style="whiteSpace=wrap;html=1;shape=mxgraph.basic.document;fontFamily=Helvetica;fontSize=11;fontColor=default;labelBackgroundColor=default;" vertex="1" parent="1">
          <mxGeometry x="3838" y="206" width="20" height="30" as="geometry" />
        </mxCell>
        <mxCell id="561VKzJUoYmYLCurIPaJ-62" value="Our system" style="rounded=1;whiteSpace=wrap;html=1;strokeColor=#66B2FF;strokeWidth=2;labelPosition=center;verticalLabelPosition=middle;align=center;verticalAlign=middle;spacingBottom=0;spacingRight=0;fontSize=16;" vertex="1" parent="1">
          <mxGeometry x="4030" y="126" width="200" height="90" as="geometry" />
        </mxCell>
        <mxCell id="561VKzJUoYmYLCurIPaJ-63" value="synced" style="edgeStyle=none;shape=connector;rounded=0;orthogonalLoop=1;jettySize=auto;html=1;entryX=1.017;entryY=0.983;entryDx=0;entryDy=0;entryPerimeter=0;strokeColor=#00FF00;align=center;verticalAlign=middle;fontFamily=Helvetica;fontSize=16;fontColor=#00FF00;labelBackgroundColor=default;endArrow=classic;strokeWidth=1;" edge="1" parent="1" source="561VKzJUoYmYLCurIPaJ-62" target="561VKzJUoYmYLCurIPaJ-58">
          <mxGeometry relative="1" as="geometry" />
        </mxCell>
        <mxCell id="561VKzJUoYmYLCurIPaJ-64" value="User 1" style="shape=umlActor;verticalLabelPosition=bottom;verticalAlign=top;html=1;outlineConnect=0;fontFamily=Helvetica;fontSize=16;fontColor=default;labelBackgroundColor=default;" vertex="1" parent="1">
          <mxGeometry x="4460" y="94" width="30" height="60" as="geometry" />
        </mxCell>
        <mxCell id="561VKzJUoYmYLCurIPaJ-65" style="edgeStyle=none;shape=connector;rounded=0;orthogonalLoop=1;jettySize=auto;html=1;entryX=0;entryY=0.25;entryDx=0;entryDy=0;strokeColor=default;align=center;verticalAlign=middle;fontFamily=Helvetica;fontSize=11;fontColor=default;labelBackgroundColor=default;endArrow=classic;" edge="1" parent="1" source="561VKzJUoYmYLCurIPaJ-66" target="561VKzJUoYmYLCurIPaJ-70">
          <mxGeometry relative="1" as="geometry" />
        </mxCell>
        <mxCell id="561VKzJUoYmYLCurIPaJ-66" value="" style="whiteSpace=wrap;html=1;shape=mxgraph.basic.document;fontFamily=Helvetica;fontSize=11;fontColor=default;labelBackgroundColor=default;" vertex="1" parent="1">
          <mxGeometry x="4508" y="110" width="20" height="30" as="geometry" />
        </mxCell>
        <mxCell id="561VKzJUoYmYLCurIPaJ-67" value="User 2" style="shape=umlActor;verticalLabelPosition=bottom;verticalAlign=top;html=1;outlineConnect=0;fontFamily=Helvetica;fontSize=16;fontColor=default;labelBackgroundColor=default;" vertex="1" parent="1">
          <mxGeometry x="4460" y="190" width="30" height="60" as="geometry" />
        </mxCell>
        <mxCell id="561VKzJUoYmYLCurIPaJ-68" style="edgeStyle=none;shape=connector;rounded=0;orthogonalLoop=1;jettySize=auto;html=1;entryX=0;entryY=0.75;entryDx=0;entryDy=0;strokeColor=default;align=center;verticalAlign=middle;fontFamily=Helvetica;fontSize=11;fontColor=default;labelBackgroundColor=default;endArrow=classic;" edge="1" parent="1" source="561VKzJUoYmYLCurIPaJ-69" target="561VKzJUoYmYLCurIPaJ-70">
          <mxGeometry relative="1" as="geometry" />
        </mxCell>
        <mxCell id="561VKzJUoYmYLCurIPaJ-69" value="" style="whiteSpace=wrap;html=1;shape=mxgraph.basic.document;fontFamily=Helvetica;fontSize=11;fontColor=default;labelBackgroundColor=default;" vertex="1" parent="1">
          <mxGeometry x="4508" y="206" width="20" height="30" as="geometry" />
        </mxCell>
        <mxCell id="561VKzJUoYmYLCurIPaJ-70" value="Our system" style="rounded=1;whiteSpace=wrap;html=1;strokeColor=#66B2FF;strokeWidth=2;labelPosition=center;verticalLabelPosition=middle;align=center;verticalAlign=middle;spacingBottom=0;spacingRight=0;fontSize=16;" vertex="1" parent="1">
          <mxGeometry x="4700" y="126" width="200" height="90" as="geometry" />
        </mxCell>
        <mxCell id="561VKzJUoYmYLCurIPaJ-71" value="synced" style="edgeStyle=none;shape=connector;rounded=0;orthogonalLoop=1;jettySize=auto;html=1;entryX=1.017;entryY=0.983;entryDx=0;entryDy=0;entryPerimeter=0;strokeColor=#00FF00;align=center;verticalAlign=middle;fontFamily=Helvetica;fontSize=16;fontColor=#00FF00;labelBackgroundColor=default;endArrow=classic;strokeWidth=1;" edge="1" parent="1" source="561VKzJUoYmYLCurIPaJ-70" target="561VKzJUoYmYLCurIPaJ-66">
          <mxGeometry relative="1" as="geometry" />
        </mxCell>
        <mxCell id="561VKzJUoYmYLCurIPaJ-72" value="conflict" style="edgeStyle=none;shape=connector;rounded=0;orthogonalLoop=1;jettySize=auto;html=1;entryX=0.933;entryY=0.922;entryDx=0;entryDy=0;entryPerimeter=0;strokeColor=#FF0000;align=center;verticalAlign=middle;fontFamily=Helvetica;fontSize=16;fontColor=#FF0000;labelBackgroundColor=default;endArrow=classic;exitX=-0.004;exitY=0.881;exitDx=0;exitDy=0;exitPerimeter=0;" edge="1" parent="1" source="561VKzJUoYmYLCurIPaJ-70" target="561VKzJUoYmYLCurIPaJ-69">
          <mxGeometry relative="1" as="geometry" />
        </mxCell>
        <mxCell id="561VKzJUoYmYLCurIPaJ-73" value="" style="edgeStyle=none;shape=connector;rounded=0;orthogonalLoop=1;jettySize=auto;html=1;strokeColor=default;align=center;verticalAlign=middle;fontFamily=Helvetica;fontSize=11;fontColor=default;labelBackgroundColor=default;endArrow=classic;" edge="1" parent="1" source="561VKzJUoYmYLCurIPaJ-77" target="561VKzJUoYmYLCurIPaJ-88">
          <mxGeometry relative="1" as="geometry" />
        </mxCell>
        <mxCell id="561VKzJUoYmYLCurIPaJ-74" style="edgeStyle=orthogonalEdgeStyle;rounded=0;orthogonalLoop=1;jettySize=auto;html=1;entryX=0.5;entryY=0;entryDx=0;entryDy=0;" edge="1" parent="1" source="561VKzJUoYmYLCurIPaJ-77" target="561VKzJUoYmYLCurIPaJ-99">
          <mxGeometry relative="1" as="geometry" />
        </mxCell>
        <mxCell id="561VKzJUoYmYLCurIPaJ-75" style="edgeStyle=orthogonalEdgeStyle;rounded=0;orthogonalLoop=1;jettySize=auto;html=1;entryX=0.5;entryY=0;entryDx=0;entryDy=0;fontSize=16;labelPosition=right;verticalLabelPosition=middle;align=left;verticalAlign=middle;" edge="1" parent="1" source="561VKzJUoYmYLCurIPaJ-77" target="561VKzJUoYmYLCurIPaJ-104">
          <mxGeometry relative="1" as="geometry" />
        </mxCell>
        <mxCell id="561VKzJUoYmYLCurIPaJ-76" value="long polling" style="edgeLabel;html=1;align=center;verticalAlign=middle;resizable=0;points=[];" vertex="1" connectable="0" parent="561VKzJUoYmYLCurIPaJ-75">
          <mxGeometry x="0.456" y="3" relative="1" as="geometry">
            <mxPoint as="offset" />
          </mxGeometry>
        </mxCell>
        <mxCell id="561VKzJUoYmYLCurIPaJ-77" value="User" style="rounded=1;whiteSpace=wrap;html=1;strokeColor=#66B2FF;strokeWidth=2;labelPosition=center;verticalLabelPosition=middle;align=center;verticalAlign=middle;spacingBottom=50;spacingRight=140;" vertex="1" parent="1">
          <mxGeometry x="5350" y="126" width="190" height="74" as="geometry" />
        </mxCell>
        <mxCell id="561VKzJUoYmYLCurIPaJ-78" value="" style="sketch=0;aspect=fixed;pointerEvents=1;shadow=0;dashed=0;html=1;strokeColor=none;labelPosition=center;verticalLabelPosition=bottom;verticalAlign=top;align=center;fillColor=#000000;shape=mxgraph.azure.laptop" vertex="1" parent="1">
          <mxGeometry x="5400" y="150" width="50" height="30" as="geometry" />
        </mxCell>
        <mxCell id="561VKzJUoYmYLCurIPaJ-79" value="" style="sketch=0;pointerEvents=1;shadow=0;dashed=0;html=1;strokeColor=none;fillColor=#000000;labelPosition=center;verticalLabelPosition=bottom;verticalAlign=top;outlineConnect=0;align=center;shape=mxgraph.office.devices.cell_phone_iphone_standalone;" vertex="1" parent="1">
          <mxGeometry x="5490" y="145" width="25" height="42" as="geometry" />
        </mxCell>
        <mxCell id="561VKzJUoYmYLCurIPaJ-80" style="edgeStyle=orthogonalEdgeStyle;rounded=0;orthogonalLoop=1;jettySize=auto;html=1;entryX=0.5;entryY=0;entryDx=0;entryDy=0;" edge="1" parent="1" source="561VKzJUoYmYLCurIPaJ-81" target="561VKzJUoYmYLCurIPaJ-5">
          <mxGeometry relative="1" as="geometry" />
        </mxCell>
        <mxCell id="561VKzJUoYmYLCurIPaJ-81" value="" style="rounded=1;whiteSpace=wrap;html=1;verticalAlign=bottom;strokeColor=#66B2FF;" vertex="1" parent="1">
          <mxGeometry x="5080" y="392.5" width="100" height="106" as="geometry" />
        </mxCell>
        <mxCell id="561VKzJUoYmYLCurIPaJ-82" value="Metadata DB" style="rounded=1;whiteSpace=wrap;html=1;verticalAlign=bottom;strokeColor=#66B2FF;" vertex="1" parent="1">
          <mxGeometry x="5485" y="570" width="100" height="106" as="geometry" />
        </mxCell>
        <mxCell id="561VKzJUoYmYLCurIPaJ-83" style="rounded=0;orthogonalLoop=1;jettySize=auto;html=1;exitX=0.5;exitY=1;exitDx=0;exitDy=0;entryX=0.75;entryY=0;entryDx=0;entryDy=0;" edge="1" parent="1" source="561VKzJUoYmYLCurIPaJ-86" target="561VKzJUoYmYLCurIPaJ-94">
          <mxGeometry relative="1" as="geometry">
            <mxPoint x="5450" y="485.5" as="sourcePoint" />
            <mxPoint x="5420" y="574" as="targetPoint" />
          </mxGeometry>
        </mxCell>
        <mxCell id="561VKzJUoYmYLCurIPaJ-84" style="edgeStyle=none;shape=connector;rounded=0;orthogonalLoop=1;jettySize=auto;html=1;strokeColor=default;align=center;verticalAlign=middle;fontFamily=Helvetica;fontSize=11;fontColor=default;labelBackgroundColor=default;endArrow=classic;exitX=0.5;exitY=1;exitDx=0;exitDy=0;entryX=0.25;entryY=0;entryDx=0;entryDy=0;" edge="1" parent="1" source="561VKzJUoYmYLCurIPaJ-86" target="561VKzJUoYmYLCurIPaJ-82">
          <mxGeometry relative="1" as="geometry">
            <mxPoint x="5450" y="485.5" as="sourcePoint" />
            <mxPoint x="5480" y="560" as="targetPoint" />
          </mxGeometry>
        </mxCell>
        <mxCell id="561VKzJUoYmYLCurIPaJ-85" style="edgeStyle=orthogonalEdgeStyle;rounded=0;orthogonalLoop=1;jettySize=auto;html=1;entryX=0;entryY=0.5;entryDx=0;entryDy=0;" edge="1" parent="1" source="561VKzJUoYmYLCurIPaJ-86" target="561VKzJUoYmYLCurIPaJ-104">
          <mxGeometry relative="1" as="geometry" />
        </mxCell>
        <mxCell id="561VKzJUoYmYLCurIPaJ-86" value="" style="rounded=1;whiteSpace=wrap;html=1;dashed=1;strokeColor=#66B2FF;" vertex="1" parent="1">
          <mxGeometry x="5405" y="405.5" width="80" height="80" as="geometry" />
        </mxCell>
        <mxCell id="561VKzJUoYmYLCurIPaJ-87" value="" style="edgeStyle=orthogonalEdgeStyle;rounded=0;orthogonalLoop=1;jettySize=auto;html=1;" edge="1" parent="1" source="561VKzJUoYmYLCurIPaJ-88">
          <mxGeometry relative="1" as="geometry">
            <mxPoint x="5445" y="405.5" as="targetPoint" />
          </mxGeometry>
        </mxCell>
        <mxCell id="561VKzJUoYmYLCurIPaJ-88" value="Load balancer" style="verticalLabelPosition=middle;html=1;verticalAlign=middle;align=left;strokeColor=none;fillColor=#00BEF2;shape=mxgraph.azure.azure_load_balancer;labelPosition=right;" vertex="1" parent="1">
          <mxGeometry x="5420" y="294" width="50" height="35" as="geometry" />
        </mxCell>
        <mxCell id="561VKzJUoYmYLCurIPaJ-89" value="API servers" style="sketch=0;pointerEvents=1;shadow=0;dashed=0;html=1;strokeColor=none;fillColor=#505050;labelPosition=center;verticalLabelPosition=bottom;verticalAlign=top;outlineConnect=0;align=center;shape=mxgraph.office.servers.server_farm;fillColor=#7FBA42;" vertex="1" parent="1">
          <mxGeometry x="5417" y="415.5" width="56" height="49" as="geometry" />
        </mxCell>
        <mxCell id="561VKzJUoYmYLCurIPaJ-90" value="" style="shape=mxgraph.cisco.storage.relational_database;html=1;pointerEvents=1;dashed=0;fillColor=#036897;strokeColor=#ffffff;strokeWidth=2;verticalLabelPosition=bottom;verticalAlign=top;align=center;outlineConnect=0;" vertex="1" parent="1">
          <mxGeometry x="5504.999999999999" y="576" width="36.5" height="54" as="geometry" />
        </mxCell>
        <mxCell id="561VKzJUoYmYLCurIPaJ-91" value="" style="shape=mxgraph.cisco.storage.relational_database;html=1;pointerEvents=1;dashed=0;fillColor=#036897;strokeColor=#ffffff;strokeWidth=2;verticalLabelPosition=bottom;verticalAlign=top;align=center;outlineConnect=0;" vertex="1" parent="1">
          <mxGeometry x="5514.999999999999" y="586" width="36.5" height="54" as="geometry" />
        </mxCell>
        <mxCell id="561VKzJUoYmYLCurIPaJ-92" value="" style="shape=mxgraph.cisco.storage.relational_database;html=1;pointerEvents=1;dashed=0;fillColor=#036897;strokeColor=#ffffff;strokeWidth=2;verticalLabelPosition=bottom;verticalAlign=top;align=center;outlineConnect=0;" vertex="1" parent="1">
          <mxGeometry x="5524.999999999999" y="596" width="36.5" height="54" as="geometry" />
        </mxCell>
        <mxCell id="561VKzJUoYmYLCurIPaJ-93" value="Cloud storage" style="sketch=0;outlineConnect=0;fontColor=#232F3E;gradientColor=none;fillColor=#7AA116;strokeColor=none;dashed=0;verticalLabelPosition=bottom;verticalAlign=top;align=center;html=1;fontSize=16;fontStyle=0;aspect=fixed;pointerEvents=1;shape=mxgraph.aws4.bucket_with_objects;" vertex="1" parent="1">
          <mxGeometry x="5101.639999999999" y="400" width="56.73" height="59" as="geometry" />
        </mxCell>
        <mxCell id="561VKzJUoYmYLCurIPaJ-94" value="Metadata Cache" style="rounded=1;whiteSpace=wrap;html=1;verticalAlign=bottom;strokeColor=#66B2FF;" vertex="1" parent="1">
          <mxGeometry x="5305" y="570" width="100" height="106" as="geometry" />
        </mxCell>
        <mxCell id="561VKzJUoYmYLCurIPaJ-95" value="" style="outlineConnect=0;dashed=0;verticalLabelPosition=bottom;verticalAlign=top;align=center;html=1;shape=mxgraph.aws3.cache_node;fillColor=#2E73B8;gradientColor=none;" vertex="1" parent="1">
          <mxGeometry x="5325" y="579" width="40" height="42.5" as="geometry" />
        </mxCell>
        <mxCell id="561VKzJUoYmYLCurIPaJ-96" value="" style="outlineConnect=0;dashed=0;verticalLabelPosition=bottom;verticalAlign=top;align=center;html=1;shape=mxgraph.aws3.cache_node;fillColor=#2E73B8;gradientColor=none;" vertex="1" parent="1">
          <mxGeometry x="5335" y="589" width="40" height="42.5" as="geometry" />
        </mxCell>
        <mxCell id="561VKzJUoYmYLCurIPaJ-97" value="" style="outlineConnect=0;dashed=0;verticalLabelPosition=bottom;verticalAlign=top;align=center;html=1;shape=mxgraph.aws3.cache_node;fillColor=#2E73B8;gradientColor=none;" vertex="1" parent="1">
          <mxGeometry x="5345" y="599" width="40" height="42.5" as="geometry" />
        </mxCell>
        <mxCell id="561VKzJUoYmYLCurIPaJ-98" style="edgeStyle=orthogonalEdgeStyle;rounded=0;orthogonalLoop=1;jettySize=auto;html=1;entryX=0.5;entryY=0;entryDx=0;entryDy=0;" edge="1" parent="1" source="561VKzJUoYmYLCurIPaJ-99" target="561VKzJUoYmYLCurIPaJ-81">
          <mxGeometry relative="1" as="geometry" />
        </mxCell>
        <mxCell id="561VKzJUoYmYLCurIPaJ-99" value="" style="rounded=1;whiteSpace=wrap;html=1;dashed=1;strokeColor=#66B2FF;" vertex="1" parent="1">
          <mxGeometry x="5090" y="230" width="80" height="80" as="geometry" />
        </mxCell>
        <mxCell id="561VKzJUoYmYLCurIPaJ-100" value="Block servers" style="sketch=0;pointerEvents=1;shadow=0;dashed=0;html=1;strokeColor=none;fillColor=#505050;labelPosition=center;verticalLabelPosition=bottom;verticalAlign=top;outlineConnect=0;align=center;shape=mxgraph.office.servers.server_farm;fillColor=#7FBA42;" vertex="1" parent="1">
          <mxGeometry x="5102" y="240" width="56" height="49" as="geometry" />
        </mxCell>
        <mxCell id="561VKzJUoYmYLCurIPaJ-101" style="edgeStyle=orthogonalEdgeStyle;rounded=0;orthogonalLoop=1;jettySize=auto;html=1;entryX=0.05;entryY=0.5;entryDx=0;entryDy=0;entryPerimeter=0;" edge="1" parent="1" source="561VKzJUoYmYLCurIPaJ-81" target="561VKzJUoYmYLCurIPaJ-88">
          <mxGeometry relative="1" as="geometry">
            <Array as="points">
              <mxPoint x="5280" y="446" />
              <mxPoint x="5280" y="312" />
            </Array>
          </mxGeometry>
        </mxCell>
        <mxCell id="561VKzJUoYmYLCurIPaJ-102" value="Cold storage" style="shape=image;html=1;verticalAlign=top;verticalLabelPosition=bottom;labelBackgroundColor=#ffffff;imageAspect=0;aspect=fixed;image=https://cdn1.iconfinder.com/data/icons/line-christmas-icons/75/_snowflake-128.png" vertex="1" parent="1">
          <mxGeometry x="5093" y="579" width="74" height="74" as="geometry" />
        </mxCell>
        <mxCell id="561VKzJUoYmYLCurIPaJ-103" style="edgeStyle=orthogonalEdgeStyle;rounded=0;orthogonalLoop=1;jettySize=auto;html=1;" edge="1" parent="1" source="561VKzJUoYmYLCurIPaJ-104" target="561VKzJUoYmYLCurIPaJ-106">
          <mxGeometry relative="1" as="geometry" />
        </mxCell>
        <mxCell id="561VKzJUoYmYLCurIPaJ-104" value="" style="rounded=1;whiteSpace=wrap;html=1;verticalAlign=bottom;strokeColor=#66B2FF;" vertex="1" parent="1">
          <mxGeometry x="5630" y="392.5" width="100" height="106" as="geometry" />
        </mxCell>
        <mxCell id="561VKzJUoYmYLCurIPaJ-105" value="Notification&lt;div&gt;Service&lt;/div&gt;" style="shape=image;html=1;verticalAlign=top;verticalLabelPosition=bottom;labelBackgroundColor=#ffffff;imageAspect=0;aspect=fixed;image=https://cdn2.iconfinder.com/data/icons/boxicons-solid-vol-1/24/bxs-bell-ring-128.png" vertex="1" parent="1">
          <mxGeometry x="5650" y="399" width="60" height="60" as="geometry" />
        </mxCell>
        <mxCell id="561VKzJUoYmYLCurIPaJ-106" value="Offline backup queue" style="html=1;shadow=0;dashed=0;align=center;verticalAlign=top;shape=mxgraph.arrows2.arrow;dy=0;dx=10;notch=0;strokeWidth=3;strokeColor=#3399FF;labelPosition=center;verticalLabelPosition=bottom;fontSize=16;spacing=0;" vertex="1" parent="1">
          <mxGeometry x="5870" y="425.5" width="170" height="40" as="geometry" />
        </mxCell>
        <mxCell id="561VKzJUoYmYLCurIPaJ-107" value="" style="html=1;verticalLabelPosition=bottom;align=center;labelBackgroundColor=#ffffff;verticalAlign=top;strokeWidth=2;strokeColor=#0080F0;shadow=0;dashed=0;shape=mxgraph.ios7.icons.mail;" vertex="1" parent="1">
          <mxGeometry x="5880" y="434" width="40" height="21.5" as="geometry" />
        </mxCell>
        <mxCell id="561VKzJUoYmYLCurIPaJ-108" value="" style="html=1;verticalLabelPosition=bottom;align=center;labelBackgroundColor=#ffffff;verticalAlign=top;strokeWidth=2;strokeColor=#0080F0;shadow=0;dashed=0;shape=mxgraph.ios7.icons.mail;" vertex="1" parent="1">
          <mxGeometry x="5980" y="434" width="40" height="21.5" as="geometry" />
        </mxCell>
        <mxCell id="561VKzJUoYmYLCurIPaJ-109" value="" style="html=1;verticalLabelPosition=bottom;align=center;labelBackgroundColor=#ffffff;verticalAlign=top;strokeWidth=2;strokeColor=#0080F0;shadow=0;dashed=0;shape=mxgraph.ios7.icons.mail;" vertex="1" parent="1">
          <mxGeometry x="5930" y="434" width="40" height="21.5" as="geometry" />
        </mxCell>
        <mxCell id="561VKzJUoYmYLCurIPaJ-110" value="" style="sketch=0;aspect=fixed;pointerEvents=1;shadow=0;dashed=0;html=1;strokeColor=none;labelPosition=center;verticalLabelPosition=bottom;verticalAlign=top;align=center;fillColor=#00188D;shape=mxgraph.mscae.enterprise.lock" vertex="1" parent="1">
          <mxGeometry x="6920" y="333" width="40" height="50" as="geometry" />
        </mxCell>
        <mxCell id="561VKzJUoYmYLCurIPaJ-111" value="split" style="edgeStyle=orthogonalEdgeStyle;rounded=0;orthogonalLoop=1;jettySize=auto;html=1;entryX=0;entryY=0.5;entryDx=0;entryDy=0;fontSize=16;verticalAlign=bottom;" edge="1" parent="1" source="561VKzJUoYmYLCurIPaJ-112" target="561VKzJUoYmYLCurIPaJ-114">
          <mxGeometry x="-0.2195" relative="1" as="geometry">
            <mxPoint as="offset" />
          </mxGeometry>
        </mxCell>
        <mxCell id="561VKzJUoYmYLCurIPaJ-112" value="" style="shape=image;html=1;verticalAlign=top;verticalLabelPosition=bottom;labelBackgroundColor=#ffffff;imageAspect=0;aspect=fixed;image=https://cdn3.iconfinder.com/data/icons/geosm-e-commerce/48/file-128.png;imageBackground=none;imageBorder=none;" vertex="1" parent="1">
          <mxGeometry x="6278" y="323" width="70" height="70" as="geometry" />
        </mxCell>
        <mxCell id="561VKzJUoYmYLCurIPaJ-113" value="compress" style="edgeStyle=orthogonalEdgeStyle;rounded=0;orthogonalLoop=1;jettySize=auto;html=1;fontSize=16;verticalAlign=bottom;" edge="1" parent="1" source="561VKzJUoYmYLCurIPaJ-114" target="561VKzJUoYmYLCurIPaJ-116">
          <mxGeometry relative="1" as="geometry" />
        </mxCell>
        <mxCell id="561VKzJUoYmYLCurIPaJ-114" value="Block 2" style="rounded=0;whiteSpace=wrap;html=1;strokeWidth=2;fontSize=16;" vertex="1" parent="1">
          <mxGeometry x="6430" y="328" width="120" height="60" as="geometry" />
        </mxCell>
        <mxCell id="561VKzJUoYmYLCurIPaJ-115" value="encrypt" style="edgeStyle=orthogonalEdgeStyle;rounded=0;orthogonalLoop=1;jettySize=auto;html=1;fontSize=16;verticalAlign=bottom;" edge="1" parent="1" source="561VKzJUoYmYLCurIPaJ-116" target="561VKzJUoYmYLCurIPaJ-110">
          <mxGeometry relative="1" as="geometry" />
        </mxCell>
        <mxCell id="561VKzJUoYmYLCurIPaJ-116" value="" style="shape=image;html=1;verticalAlign=top;verticalLabelPosition=bottom;labelBackgroundColor=#ffffff;imageAspect=0;aspect=fixed;image=https://cdn1.iconfinder.com/data/icons/bootstrap-vol-3/16/file-zip-128.png" vertex="1" parent="1">
          <mxGeometry x="6710" y="333" width="50" height="50" as="geometry" />
        </mxCell>
        <mxCell id="561VKzJUoYmYLCurIPaJ-117" value="" style="sketch=0;aspect=fixed;pointerEvents=1;shadow=0;dashed=0;html=1;strokeColor=none;labelPosition=center;verticalLabelPosition=bottom;verticalAlign=top;align=center;fillColor=#00188D;shape=mxgraph.mscae.enterprise.lock" vertex="1" parent="1">
          <mxGeometry x="6920" y="219" width="40" height="50" as="geometry" />
        </mxCell>
        <mxCell id="561VKzJUoYmYLCurIPaJ-118" value="split" style="edgeStyle=orthogonalEdgeStyle;rounded=0;orthogonalLoop=1;jettySize=auto;html=1;entryX=0;entryY=0.5;entryDx=0;entryDy=0;fontSize=16;verticalAlign=bottom;exitX=0.5;exitY=0;exitDx=0;exitDy=0;" edge="1" parent="1" source="561VKzJUoYmYLCurIPaJ-112" target="561VKzJUoYmYLCurIPaJ-120">
          <mxGeometry x="0.4897" relative="1" as="geometry">
            <mxPoint x="6348" y="244" as="sourcePoint" />
            <mxPoint as="offset" />
          </mxGeometry>
        </mxCell>
        <mxCell id="561VKzJUoYmYLCurIPaJ-119" value="compress" style="edgeStyle=orthogonalEdgeStyle;rounded=0;orthogonalLoop=1;jettySize=auto;html=1;fontSize=16;verticalAlign=bottom;" edge="1" parent="1" source="561VKzJUoYmYLCurIPaJ-120" target="561VKzJUoYmYLCurIPaJ-122">
          <mxGeometry relative="1" as="geometry" />
        </mxCell>
        <mxCell id="561VKzJUoYmYLCurIPaJ-120" value="Block 1" style="rounded=0;whiteSpace=wrap;html=1;strokeWidth=2;fontSize=16;" vertex="1" parent="1">
          <mxGeometry x="6430" y="214" width="120" height="60" as="geometry" />
        </mxCell>
        <mxCell id="561VKzJUoYmYLCurIPaJ-121" value="encrypt" style="edgeStyle=orthogonalEdgeStyle;rounded=0;orthogonalLoop=1;jettySize=auto;html=1;fontSize=16;verticalAlign=bottom;" edge="1" parent="1" source="561VKzJUoYmYLCurIPaJ-122" target="561VKzJUoYmYLCurIPaJ-117">
          <mxGeometry relative="1" as="geometry" />
        </mxCell>
        <mxCell id="561VKzJUoYmYLCurIPaJ-122" value="" style="shape=image;html=1;verticalAlign=top;verticalLabelPosition=bottom;labelBackgroundColor=#ffffff;imageAspect=0;aspect=fixed;image=https://cdn1.iconfinder.com/data/icons/bootstrap-vol-3/16/file-zip-128.png" vertex="1" parent="1">
          <mxGeometry x="6710" y="219" width="50" height="50" as="geometry" />
        </mxCell>
        <mxCell id="561VKzJUoYmYLCurIPaJ-123" value="" style="sketch=0;aspect=fixed;pointerEvents=1;shadow=0;dashed=0;html=1;strokeColor=none;labelPosition=center;verticalLabelPosition=bottom;verticalAlign=top;align=center;fillColor=#00188D;shape=mxgraph.mscae.enterprise.lock" vertex="1" parent="1">
          <mxGeometry x="6920" y="482.5" width="40" height="50" as="geometry" />
        </mxCell>
        <mxCell id="561VKzJUoYmYLCurIPaJ-124" value="split" style="edgeStyle=orthogonalEdgeStyle;rounded=0;orthogonalLoop=1;jettySize=auto;html=1;entryX=0;entryY=0.5;entryDx=0;entryDy=0;fontSize=16;verticalAlign=bottom;exitX=0.5;exitY=1;exitDx=0;exitDy=0;" edge="1" parent="1" source="561VKzJUoYmYLCurIPaJ-112" target="561VKzJUoYmYLCurIPaJ-126">
          <mxGeometry x="0.568" y="-1" relative="1" as="geometry">
            <mxPoint x="6348" y="507.5" as="sourcePoint" />
            <mxPoint as="offset" />
          </mxGeometry>
        </mxCell>
        <mxCell id="561VKzJUoYmYLCurIPaJ-125" value="compress" style="edgeStyle=orthogonalEdgeStyle;rounded=0;orthogonalLoop=1;jettySize=auto;html=1;fontSize=16;verticalAlign=bottom;" edge="1" parent="1" source="561VKzJUoYmYLCurIPaJ-126" target="561VKzJUoYmYLCurIPaJ-128">
          <mxGeometry relative="1" as="geometry" />
        </mxCell>
        <mxCell id="561VKzJUoYmYLCurIPaJ-126" value="Block N" style="rounded=0;whiteSpace=wrap;html=1;strokeWidth=2;fontSize=16;" vertex="1" parent="1">
          <mxGeometry x="6430" y="477.5" width="120" height="60" as="geometry" />
        </mxCell>
        <mxCell id="561VKzJUoYmYLCurIPaJ-127" value="encrypt" style="edgeStyle=orthogonalEdgeStyle;rounded=0;orthogonalLoop=1;jettySize=auto;html=1;fontSize=16;verticalAlign=bottom;" edge="1" parent="1" source="561VKzJUoYmYLCurIPaJ-128" target="561VKzJUoYmYLCurIPaJ-123">
          <mxGeometry relative="1" as="geometry" />
        </mxCell>
        <mxCell id="561VKzJUoYmYLCurIPaJ-128" value="" style="shape=image;html=1;verticalAlign=top;verticalLabelPosition=bottom;labelBackgroundColor=#ffffff;imageAspect=0;aspect=fixed;image=https://cdn1.iconfinder.com/data/icons/bootstrap-vol-3/16/file-zip-128.png" vertex="1" parent="1">
          <mxGeometry x="6710" y="482.5" width="50" height="50" as="geometry" />
        </mxCell>
        <mxCell id="561VKzJUoYmYLCurIPaJ-129" value="" style="rounded=1;whiteSpace=wrap;html=1;verticalAlign=bottom;strokeColor=#66B2FF;" vertex="1" parent="1">
          <mxGeometry x="7100" y="178" width="110" height="400" as="geometry" />
        </mxCell>
        <mxCell id="561VKzJUoYmYLCurIPaJ-130" value="Cloud storage" style="sketch=0;outlineConnect=0;fontColor=#232F3E;gradientColor=none;fillColor=#7AA116;strokeColor=none;dashed=0;verticalLabelPosition=bottom;verticalAlign=top;align=center;html=1;fontSize=16;fontStyle=0;aspect=fixed;pointerEvents=1;shape=mxgraph.aws4.bucket_with_objects;" vertex="1" parent="1">
          <mxGeometry x="7125" y="333" width="60" height="60" as="geometry" />
        </mxCell>
        <mxCell id="561VKzJUoYmYLCurIPaJ-131" value="" style="shape=waypoint;sketch=0;size=6;pointerEvents=1;points=[];fillColor=none;resizable=0;rotatable=0;perimeter=centerPerimeter;snapToPoint=1;" vertex="1" parent="1">
          <mxGeometry x="6480" y="400" width="20" height="20" as="geometry" />
        </mxCell>
        <mxCell id="561VKzJUoYmYLCurIPaJ-132" value="" style="shape=waypoint;sketch=0;size=6;pointerEvents=1;points=[];fillColor=none;resizable=0;rotatable=0;perimeter=centerPerimeter;snapToPoint=1;" vertex="1" parent="1">
          <mxGeometry x="6480" y="425.5" width="20" height="20" as="geometry" />
        </mxCell>
        <mxCell id="561VKzJUoYmYLCurIPaJ-133" value="" style="shape=waypoint;sketch=0;size=6;pointerEvents=1;points=[];fillColor=none;resizable=0;rotatable=0;perimeter=centerPerimeter;snapToPoint=1;" vertex="1" parent="1">
          <mxGeometry x="6480" y="449" width="20" height="20" as="geometry" />
        </mxCell>
        <mxCell id="561VKzJUoYmYLCurIPaJ-134" style="edgeStyle=orthogonalEdgeStyle;rounded=0;orthogonalLoop=1;jettySize=auto;html=1;" edge="1" parent="1" source="561VKzJUoYmYLCurIPaJ-135" target="561VKzJUoYmYLCurIPaJ-146">
          <mxGeometry relative="1" as="geometry" />
        </mxCell>
        <mxCell id="561VKzJUoYmYLCurIPaJ-135" value="Block servers" style="rounded=1;whiteSpace=wrap;html=1;strokeColor=#66B2FF;verticalAlign=bottom;fontSize=18;" vertex="1" parent="1">
          <mxGeometry x="7360" y="180" width="360" height="490" as="geometry" />
        </mxCell>
        <mxCell id="561VKzJUoYmYLCurIPaJ-136" value="Block 3" style="rounded=0;whiteSpace=wrap;html=1;strokeWidth=2;fontSize=16;" vertex="1" parent="1">
          <mxGeometry x="7400" y="300" width="120" height="60" as="geometry" />
        </mxCell>
        <mxCell id="561VKzJUoYmYLCurIPaJ-137" value="Block 1" style="rounded=0;whiteSpace=wrap;html=1;strokeWidth=2;fontSize=16;" vertex="1" parent="1">
          <mxGeometry x="7400" y="208.5" width="120" height="60" as="geometry" />
        </mxCell>
        <mxCell id="561VKzJUoYmYLCurIPaJ-138" value="Block 5" style="rounded=0;whiteSpace=wrap;html=1;strokeWidth=2;fontSize=16;fontColor=#FFFFFF;fillColor=#000000;" vertex="1" parent="1">
          <mxGeometry x="7400" y="392.5" width="120" height="60" as="geometry" />
        </mxCell>
        <mxCell id="561VKzJUoYmYLCurIPaJ-139" value="Block 7" style="rounded=0;whiteSpace=wrap;html=1;strokeWidth=2;fontSize=16;" vertex="1" parent="1">
          <mxGeometry x="7400" y="482.5" width="120" height="60" as="geometry" />
        </mxCell>
        <mxCell id="561VKzJUoYmYLCurIPaJ-140" value="Block 9" style="rounded=0;whiteSpace=wrap;html=1;strokeWidth=2;fontSize=16;" vertex="1" parent="1">
          <mxGeometry x="7400" y="575" width="120" height="60" as="geometry" />
        </mxCell>
        <mxCell id="561VKzJUoYmYLCurIPaJ-141" value="Block 4" style="rounded=0;whiteSpace=wrap;html=1;strokeWidth=2;fontSize=16;" vertex="1" parent="1">
          <mxGeometry x="7560" y="300" width="120" height="60" as="geometry" />
        </mxCell>
        <mxCell id="561VKzJUoYmYLCurIPaJ-142" value="Block 2" style="rounded=0;whiteSpace=wrap;html=1;strokeWidth=2;fontSize=16;fontColor=#FFFFFF;fillColor=#000000;" vertex="1" parent="1">
          <mxGeometry x="7560" y="208.5" width="120" height="60" as="geometry" />
        </mxCell>
        <mxCell id="561VKzJUoYmYLCurIPaJ-143" value="Block 6" style="rounded=0;whiteSpace=wrap;html=1;strokeWidth=2;fontSize=16;" vertex="1" parent="1">
          <mxGeometry x="7560" y="392.5" width="120" height="60" as="geometry" />
        </mxCell>
        <mxCell id="561VKzJUoYmYLCurIPaJ-144" value="Block 8" style="rounded=0;whiteSpace=wrap;html=1;strokeWidth=2;fontSize=16;" vertex="1" parent="1">
          <mxGeometry x="7560" y="482.5" width="120" height="60" as="geometry" />
        </mxCell>
        <mxCell id="561VKzJUoYmYLCurIPaJ-145" value="Block 10" style="rounded=0;whiteSpace=wrap;html=1;strokeWidth=2;fontSize=16;" vertex="1" parent="1">
          <mxGeometry x="7560" y="575" width="120" height="60" as="geometry" />
        </mxCell>
        <mxCell id="561VKzJUoYmYLCurIPaJ-146" value="" style="rounded=1;whiteSpace=wrap;html=1;verticalAlign=bottom;strokeColor=#66B2FF;" vertex="1" parent="1">
          <mxGeometry x="7840" y="180" width="160" height="490" as="geometry" />
        </mxCell>
        <mxCell id="561VKzJUoYmYLCurIPaJ-147" value="Cloud storage" style="sketch=0;outlineConnect=0;fontColor=#232F3E;gradientColor=none;fillColor=#7AA116;strokeColor=none;dashed=0;verticalLabelPosition=bottom;verticalAlign=top;align=center;html=1;fontSize=16;fontStyle=0;aspect=fixed;pointerEvents=1;shape=mxgraph.aws4.bucket_with_objects;" vertex="1" parent="1">
          <mxGeometry x="7890" y="548" width="60" height="60" as="geometry" />
        </mxCell>
        <mxCell id="561VKzJUoYmYLCurIPaJ-148" value="Block 5" style="rounded=0;whiteSpace=wrap;html=1;strokeWidth=2;fontSize=16;fontColor=#FFFFFF;fillColor=#000000;" vertex="1" parent="1">
          <mxGeometry x="7860" y="300" width="120" height="60" as="geometry" />
        </mxCell>
        <mxCell id="561VKzJUoYmYLCurIPaJ-149" value="Block 2" style="rounded=0;whiteSpace=wrap;html=1;strokeWidth=2;fontSize=16;fontColor=#FFFFFF;fillColor=#000000;" vertex="1" parent="1">
          <mxGeometry x="7860" y="220" width="120" height="60" as="geometry" />
        </mxCell>
        <mxCell id="561VKzJUoYmYLCurIPaJ-150" value="user" style="shape=table;startSize=30;container=1;collapsible=1;childLayout=tableLayout;fixedRows=1;rowLines=0;fontStyle=1;align=left;resizeLast=1;html=1;strokeColor=none;swimlaneLine=0;swimlaneFillColor=none;fillColor=#003366;fontColor=#ffffff;spacingLeft=10;" vertex="1" parent="1">
          <mxGeometry x="8370" y="190" width="200" height="120" as="geometry" />
        </mxCell>
        <mxCell id="561VKzJUoYmYLCurIPaJ-151" value="" style="shape=tableRow;horizontal=0;startSize=0;swimlaneHead=0;swimlaneBody=0;fillColor=none;collapsible=0;dropTarget=0;points=[[0,0.5],[1,0.5]];portConstraint=eastwest;top=0;left=0;right=0;bottom=1;strokeColor=inherit;swimlaneLine=0;swimlaneFillColor=none;fontColor=#ffffff;" vertex="1" parent="561VKzJUoYmYLCurIPaJ-150">
          <mxGeometry y="30" width="200" height="30" as="geometry" />
        </mxCell>
        <mxCell id="561VKzJUoYmYLCurIPaJ-152" value="user_id" style="shape=partialRectangle;connectable=0;fillColor=#CCE5FF;top=0;left=0;bottom=0;right=0;fontStyle=0;overflow=hidden;whiteSpace=wrap;html=1;strokeColor=#006EAF;align=left;labelBorderColor=none;strokeWidth=1;swimlaneLine=1;swimlaneFillColor=default;fontColor=#000000;spacingLeft=10;" vertex="1" parent="561VKzJUoYmYLCurIPaJ-151">
          <mxGeometry width="120" height="30" as="geometry">
            <mxRectangle width="120" height="30" as="alternateBounds" />
          </mxGeometry>
        </mxCell>
        <mxCell id="561VKzJUoYmYLCurIPaJ-153" value="bigint" style="shape=partialRectangle;connectable=0;fillColor=#CCE5FF;top=0;left=0;bottom=0;right=0;align=right;spacingLeft=6;fontStyle=0;overflow=hidden;whiteSpace=wrap;html=1;strokeColor=inherit;labelBorderColor=none;swimlaneLine=1;swimlaneFillColor=default;fontColor=#000000;spacingRight=10;" vertex="1" parent="561VKzJUoYmYLCurIPaJ-151">
          <mxGeometry x="120" width="80" height="30" as="geometry">
            <mxRectangle width="80" height="30" as="alternateBounds" />
          </mxGeometry>
        </mxCell>
        <mxCell id="561VKzJUoYmYLCurIPaJ-154" style="shape=tableRow;horizontal=0;startSize=0;swimlaneHead=0;swimlaneBody=0;fillColor=#FFFFFF;collapsible=0;dropTarget=0;points=[[0,0.5],[1,0.5]];portConstraint=eastwest;top=0;left=0;right=0;bottom=1;strokeColor=inherit;swimlaneLine=0;swimlaneFillColor=none;fontColor=#ffffff;" vertex="1" parent="561VKzJUoYmYLCurIPaJ-150">
          <mxGeometry y="60" width="200" height="30" as="geometry" />
        </mxCell>
        <mxCell id="561VKzJUoYmYLCurIPaJ-155" value="user_name" style="shape=partialRectangle;connectable=0;fillColor=#f5f5f5;top=0;left=0;bottom=0;right=0;fontStyle=0;overflow=hidden;whiteSpace=wrap;html=1;strokeColor=inherit;align=left;labelBorderColor=none;strokeWidth=1;swimlaneLine=1;swimlaneFillColor=default;fontColor=#333333;spacingLeft=10;" vertex="1" parent="561VKzJUoYmYLCurIPaJ-154">
          <mxGeometry width="120" height="30" as="geometry">
            <mxRectangle width="120" height="30" as="alternateBounds" />
          </mxGeometry>
        </mxCell>
        <mxCell id="561VKzJUoYmYLCurIPaJ-156" value="varchar" style="shape=partialRectangle;connectable=0;fillColor=#F5F5F5;top=0;left=0;bottom=0;right=0;align=right;spacingLeft=6;fontStyle=0;overflow=hidden;whiteSpace=wrap;html=1;strokeColor=inherit;labelBorderColor=none;swimlaneLine=1;swimlaneFillColor=default;fontColor=#333333;spacingRight=10;" vertex="1" parent="561VKzJUoYmYLCurIPaJ-154">
          <mxGeometry x="120" width="80" height="30" as="geometry">
            <mxRectangle width="80" height="30" as="alternateBounds" />
          </mxGeometry>
        </mxCell>
        <mxCell id="561VKzJUoYmYLCurIPaJ-157" style="shape=tableRow;horizontal=0;startSize=0;swimlaneHead=0;swimlaneBody=0;fillColor=#FFFFFF;collapsible=0;dropTarget=0;points=[[0,0.5],[1,0.5]];portConstraint=eastwest;top=0;left=0;right=0;bottom=1;strokeColor=inherit;swimlaneLine=0;swimlaneFillColor=none;fontColor=#ffffff;" vertex="1" parent="561VKzJUoYmYLCurIPaJ-150">
          <mxGeometry y="90" width="200" height="30" as="geometry" />
        </mxCell>
        <mxCell id="561VKzJUoYmYLCurIPaJ-158" value="created_at" style="shape=partialRectangle;connectable=0;fillColor=#f5f5f5;top=0;left=0;bottom=0;right=0;fontStyle=0;overflow=hidden;whiteSpace=wrap;html=1;strokeColor=inherit;align=left;labelBorderColor=none;strokeWidth=1;swimlaneLine=1;swimlaneFillColor=default;fontColor=#333333;spacingLeft=10;" vertex="1" parent="561VKzJUoYmYLCurIPaJ-157">
          <mxGeometry width="120" height="30" as="geometry">
            <mxRectangle width="120" height="30" as="alternateBounds" />
          </mxGeometry>
        </mxCell>
        <mxCell id="561VKzJUoYmYLCurIPaJ-159" value="timestamp" style="shape=partialRectangle;connectable=0;fillColor=#F5F5F5;top=0;left=0;bottom=0;right=0;align=right;spacingLeft=6;fontStyle=0;overflow=hidden;whiteSpace=wrap;html=1;strokeColor=inherit;labelBorderColor=none;swimlaneLine=1;swimlaneFillColor=default;fontColor=#333333;spacingRight=10;" vertex="1" parent="561VKzJUoYmYLCurIPaJ-157">
          <mxGeometry x="120" width="80" height="30" as="geometry">
            <mxRectangle width="80" height="30" as="alternateBounds" />
          </mxGeometry>
        </mxCell>
      </root>
    </mxGraphModel>
  </diagram>
</mxfile>
